<?xml version="1.0" encoding="UTF-8"?>
<svg width="800" height="600" viewBox="0 0 800 600" fill="none" xmlns="http://www.w3.org/2000/svg">
  <!-- Background Elements -->
  <circle cx="400" cy="300" r="250" fill="#E8F5E9" opacity="0.5"/>
  <circle cx="200" cy="200" r="100" fill="#C8E6C9" opacity="0.3"/>
  <circle cx="600" cy="400" r="150" fill="#A5D6A7" opacity="0.2"/>
  
  <!-- Market Chart -->
  <g transform="translate(150, 150)">
    <!-- Chart Background -->
    <rect x="0" y="0" width="500" height="300" rx="10" fill="#FFFFFF" stroke="#E0E0E0" stroke-width="2"/>
    
    <!-- Grid Lines -->
    <line x1="0" y1="75" x2="500" y2="75" stroke="#E0E0E0" stroke-width="1"/>
    <line x1="0" y1="150" x2="500" y2="150" stroke="#E0E0E0" stroke-width="1"/>
    <line x1="0" y1="225" x2="500" y2="225" stroke="#E0E0E0" stroke-width="1"/>
    
    <!-- Price Line -->
    <path d="M0 200 L100 180 L200 220 L300 150 L400 100 L500 50" 
          stroke="#4CAF50" stroke-width="3" fill="none"/>
    
    <!-- Data Points -->
    <circle cx="0" cy="200" r="4" fill="#4CAF50"/>
    <circle cx="100" cy="180" r="4" fill="#4CAF50"/>
    <circle cx="200" cy="220" r="4" fill="#4CAF50"/>
    <circle cx="300" cy="150" r="4" fill="#4CAF50"/>
    <circle cx="400" cy="100" r="4" fill="#4CAF50"/>
    <circle cx="500" cy="50" r="4" fill="#4CAF50"/>
    
    <!-- News Icons -->
    <g transform="translate(50, 320)">
      <!-- News Paper Icon -->
      <rect x="0" y="0" width="60" height="80" rx="5" fill="#FFFFFF" stroke="#4CAF50" stroke-width="2"/>
      <line x1="10" y1="20" x2="50" y2="20" stroke="#4CAF50" stroke-width="2"/>
      <line x1="10" y1="35" x2="50" y2="35" stroke="#4CAF50" stroke-width="2"/>
      <line x1="10" y1="50" x2="50" y2="50" stroke="#4CAF50" stroke-width="2"/>
      <line x1="10" y1="65" x2="30" y2="65" stroke="#4CAF50" stroke-width="2"/>
    </g>
    
    <!-- Trending Icon -->
    <g transform="translate(200, 320)">
      <path d="M0 40 L20 0 L40 40 L60 0 L80 40" stroke="#4CAF50" stroke-width="3" fill="none"/>
      <circle cx="20" cy="0" r="4" fill="#4CAF50"/>
      <circle cx="40" cy="40" r="4" fill="#4CAF50"/>
      <circle cx="60" cy="0" r="4" fill="#4CAF50"/>
      <circle cx="80" cy="40" r="4" fill="#4CAF50"/>
    </g>
    
    <!-- Analysis Icon -->
    <g transform="translate(350, 320)">
      <circle cx="40" cy="40" r="30" fill="#FFFFFF" stroke="#4CAF50" stroke-width="2"/>
      <path d="M25 40 L40 25 L55 40 L40 55 Z" fill="#4CAF50"/>
      <line x1="40" y1="15" x2="40" y2="65" stroke="#4CAF50" stroke-width="2"/>
      <line x1="15" y1="40" x2="65" y2="40" stroke="#4CAF50" stroke-width="2"/>
    </g>
  </g>
  
  <!-- Decorative Elements -->
  <circle cx="100" cy="500" r="30" fill="#A5D6A7" opacity="0.3"/>
  <circle cx="700" cy="100" r="40" fill="#C8E6C9" opacity="0.3"/>
  <circle cx="650" cy="550" r="25" fill="#E8F5E9" opacity="0.4"/>
</svg> 